<svg width="1039" height="627" viewBox="0 0 1039 627" fill="none" xmlns="http://www.w3.org/2000/svg">
<path d="M232.171 333.009C219.061 332.679 217.991 341.069 217.991 341.069C217.991 341.069 212.901 335.049 205.651 338.759C198.401 342.459 201.021 349.559 201.021 349.559C201.021 349.559 190.841 349.559 189.291 359.899C187.741 370.239 197.161 374.249 197.161 374.249C197.161 374.249 192.841 386.439 205.951 385.509L250.391 389.059C250.391 389.059 259.341 384.889 255.941 374.859C255.941 374.859 261.641 369.479 256.711 360.979C256.711 360.979 259.031 354.329 253.781 347.549C248.531 340.759 243.131 343.999 243.131 343.999C243.131 343.999 242.801 333.279 232.171 333.009Z" fill="#223D4E"/>
<path d="M270.761 402.929L270.451 432.879L227.861 440.899L216.991 419.369C216.991 419.369 230.801 417.759 232.181 415.759C232.591 415.179 232.411 414.219 231.961 413.159C230.871 410.599 228.171 407.429 228.171 407.429C208.121 413.289 207.961 392.459 207.651 389.069C207.341 385.679 202.561 376.879 202.561 376.879C202.561 376.879 207.231 376.219 210.591 371.409C212.861 368.149 210.291 362.579 210.291 362.579C213.531 363.289 216.681 360.149 216.681 360.149C224.291 363.699 227.741 357.719 227.741 357.719C230.481 362.889 239.911 361.879 240.531 362.079C241.141 362.279 242.051 376.689 242.051 378.109C242.051 379.529 243.171 381.959 246.111 380.949C249.051 379.939 249.051 370.599 249.051 370.599C249.051 370.599 255.441 372.829 255.551 377.799C255.651 382.769 248.861 384.129 248.861 384.129C249.631 389.219 262.751 404.189 262.751 404.189L270.761 402.929Z" fill="#F8A994"/>
<path d="M231.961 413.151C230.871 410.591 228.171 407.421 228.171 407.421C244.731 400.721 244.111 390.531 244.111 390.531C246.281 405.231 231.961 413.151 231.961 413.151Z" fill="#F26E71"/>
<path d="M225.311 418.079C225.311 418.079 225.041 431.729 228.171 433.459C231.301 435.189 254.281 432.199 266.711 418.509L266.701 403.569L275.211 401.359L285.901 547.819H234.851L220.261 422.729L221.111 418.739L225.311 418.079Z" fill="#233D4D"/>
<path d="M268.471 403.101C268.471 403.101 303.191 386.781 321.771 407.371C340.351 427.961 430.191 546.811 430.191 546.811L279.411 547.911C279.411 547.911 266.961 432.761 268.471 403.101Z" fill="#A1C181"/>
<path d="M222.381 418.578C222.381 418.578 239.631 546.278 243.281 547.918L207.521 548.638L198.651 510.698L183.271 548.218L128.851 547.908L170.561 436.328C170.561 436.328 173.461 427.618 194.401 423.488C215.341 419.368 222.381 418.578 222.381 418.578Z" fill="#A1C181"/>
<path d="M207.531 548.641L191.201 478.221L193.901 475.301L209.661 548.581L207.531 548.641Z" fill="white"/>
<path d="M435.421 575.568L340.721 463.028C340.721 463.028 335.491 422.418 311.631 427.838C287.981 433.218 296.221 457.248 300.081 464.958C303.931 472.658 306.031 485.618 300.081 497.168C294.131 508.718 287.281 537.998 299.091 555.168C299.091 555.168 282.451 576.098 299.361 589.248C316.261 602.408 435.421 575.568 435.421 575.568Z" fill="#F8A799"/>
<path d="M435.421 576.401C435.181 576.401 434.951 576.301 434.791 576.111L339.941 463.391L339.911 463.151C339.881 462.911 336.711 439.331 324.831 431.041C321.001 428.371 316.631 427.571 311.821 428.661C304.201 430.391 299.341 434.271 297.361 440.191C297.221 440.621 296.751 440.861 296.311 440.711C295.881 440.571 295.641 440.101 295.791 439.661C297.971 433.161 303.241 428.911 311.451 427.041C316.731 425.841 321.551 426.731 325.771 429.681C331.031 433.351 335.281 440.081 338.411 449.671C340.461 455.961 341.331 461.481 341.501 462.691L436.041 575.041C436.331 575.391 436.291 575.911 435.941 576.201C435.791 576.341 435.611 576.401 435.421 576.401Z" fill="white"/>
<path d="M364.951 388L290.401 600.93C287.261 609.9 293.921 619.29 303.421 619.29H400.781C413.421 619.29 424.651 611.23 428.701 599.25L496.761 397.72C500.081 387.9 492.771 377.73 482.411 377.73H379.431C372.911 377.73 367.111 381.85 364.951 388Z" fill="#1F3B4F"/>
<path d="M370.581 393.978L372.001 389.998C373.441 385.958 377.271 383.258 381.561 383.258H478.321C482.101 383.258 484.781 386.968 483.581 390.558L482.451 393.978L416.041 594.118C414.101 599.968 408.621 603.918 402.461 603.918H303.941C299.821 603.918 296.941 599.828 298.331 595.948" fill="white"/>
<path d="M483.581 390.558L482.451 393.978H370.581L372.001 389.998C373.441 385.958 377.271 383.258 381.561 383.258H478.321C482.101 383.258 484.781 386.968 483.581 390.558Z" fill="#EDEAEC"/>
<path d="M464.951 421.21C456.191 429.17 461.751 442.01 466.261 446.95C470.771 451.89 476.581 456.98 476.581 456.98C475.231 455.8 469.991 456.71 468.471 456.95C460.831 458.16 457.031 463.52 455.611 470.77C454.831 474.78 454.551 479.72 456.221 483.59C455.881 482.8 447.991 486.79 447.221 487.27C442.431 490.25 439.891 494.25 439.601 499.94C439.331 505.21 441.101 510.53 444.291 514.71C443.981 514.31 440.201 517.43 439.961 517.66C435.861 521.56 433.871 527.64 434.161 533.23C434.481 539.22 438.261 544.2 441.521 548.96L443.561 551.94L435.421 575.21C435.421 575.21 472.501 562.13 468.431 533.33C468.431 533.33 490.821 520.68 478.901 502.21C478.901 502.21 490.971 494.21 493.591 486.21C496.211 478.21 490.541 468.61 490.541 468.61C490.541 468.61 503.191 455.09 499.991 436.33C496.791 417.57 476.001 411.17 464.951 421.21Z" fill="#F8A690"/>
<path d="M448.691 559.691C448.521 559.691 448.351 559.611 448.241 559.461L443.131 552.261C442.951 552.011 443.011 551.671 443.261 551.491C443.511 551.311 443.851 551.371 444.031 551.621L449.141 558.821C449.321 559.071 449.261 559.411 449.011 559.591C448.911 559.661 448.801 559.691 448.691 559.691Z" fill="#F26E71"/>
<path d="M457.581 517.739C457.451 517.739 457.311 517.689 457.201 517.589C452.191 512.899 444.531 515.209 444.461 515.239C444.171 515.329 443.861 515.169 443.771 514.879C443.681 514.589 443.841 514.279 444.131 514.189C444.471 514.079 452.471 511.659 457.951 516.789C458.171 516.999 458.181 517.349 457.981 517.569C457.881 517.679 457.731 517.739 457.581 517.739Z" fill="#F26E71"/>
<path d="M462.211 485.61C462.091 485.61 461.971 485.57 461.871 485.49C461.841 485.47 459.161 483.38 456.371 484.12C456.081 484.2 455.771 484.02 455.701 483.73C455.621 483.44 455.801 483.13 456.091 483.06C459.421 482.18 462.431 484.53 462.551 484.63C462.791 484.82 462.831 485.16 462.641 485.4C462.531 485.54 462.371 485.61 462.211 485.61Z" fill="#F26E71"/>
<path d="M482.591 462.15C482.471 462.15 482.351 462.11 482.251 462.04L476.251 457.42C476.011 457.23 475.961 456.89 476.151 456.65C476.331 456.41 476.681 456.36 476.921 456.55L482.921 461.17C483.161 461.36 483.211 461.7 483.021 461.94C482.921 462.08 482.761 462.15 482.591 462.15Z" fill="#F26E71"/>
<path d="M460.161 519.328C460.161 519.328 454.631 532.738 446.921 534.048C446.921 534.048 458.851 556.018 465.971 542.338C470.661 533.328 460.161 519.328 460.161 519.328Z" fill="#FBCBC1"/>
<path d="M453.061 505.431C453.061 505.431 464.121 497.001 463.901 487.031C463.901 487.031 475.291 493.601 475.621 501.491C475.951 509.381 469.271 522.181 453.061 505.431Z" fill="#FBCBC1"/>
<path d="M477.151 459.098C477.151 459.098 474.921 474.758 467.331 478.148C467.331 478.148 478.441 492.828 488.101 481.328C495.771 472.208 477.151 459.098 477.151 459.098Z" fill="#FBCBC1"/>
<path d="M469.321 434.659C469.321 434.659 479.241 427.799 481.081 420.199C481.081 420.199 491.621 421.059 495.291 430.489C498.961 439.919 483.901 452.909 469.321 434.659Z" fill="#FBCBC1"/>
<path d="M169.871 402.718C161.771 404.138 160.911 412.238 164.081 423.628C164.081 423.628 145.231 424.378 144.851 429.598C144.481 434.828 146.901 436.598 146.901 436.598C146.901 436.598 141.671 440.418 146.711 446.948C146.711 446.948 144.281 454.418 148.391 456.278C148.391 456.278 148.201 463.368 153.801 462.998C159.401 462.628 164.071 461.878 162.201 465.988C160.331 470.098 153.431 486.898 148.391 494.358C143.351 501.828 122.821 532.998 123.001 547.928H177.151C177.151 547.928 187.981 498.468 190.401 489.688C192.831 480.918 203.471 448.248 187.791 428.278C178.601 417.958 174.901 413.058 174.701 409.668C174.501 406.288 173.311 402.118 169.871 402.718Z" fill="#F8A796"/>
<path d="M176.831 460.73C176.801 460.73 176.761 460.73 176.731 460.72C176.431 460.66 176.231 460.38 176.291 460.08C178.121 450.33 179.071 437.11 173.241 429.52C169.781 425.02 165.541 424.64 165.501 424.64C165.201 424.62 164.971 424.35 164.991 424.05C165.011 423.75 165.281 423.52 165.581 423.54C165.771 423.55 170.361 423.96 174.111 428.85C178.991 435.21 180.081 445.78 177.371 460.29C177.321 460.54 177.091 460.73 176.831 460.73Z" fill="#F26E71"/>
<path d="M147.921 437.148C147.661 437.148 147.421 436.958 147.381 436.688C147.331 436.388 147.531 436.108 147.831 436.058L175.371 431.508C175.671 431.458 175.951 431.658 176.001 431.958C176.051 432.258 175.851 432.538 175.551 432.588L148.011 437.138C147.981 437.148 147.951 437.148 147.921 437.148Z" fill="#F26E71"/>
<path d="M147.921 447.34C147.661 447.34 147.421 447.15 147.381 446.88C147.331 446.58 147.531 446.3 147.831 446.25L177.951 441.23C178.251 441.18 178.531 441.38 178.581 441.68C178.631 441.98 178.431 442.26 178.131 442.31L148.011 447.33C147.981 447.34 147.951 447.34 147.921 447.34Z" fill="#F26E71"/>
<path d="M149.311 456.589C149.031 456.589 148.791 456.379 148.761 456.099C148.731 455.799 148.941 455.529 149.251 455.489L177.841 452.339C178.141 452.309 178.411 452.519 178.451 452.829C178.481 453.129 178.271 453.399 177.961 453.439L149.371 456.589C149.351 456.589 149.331 456.589 149.311 456.589Z" fill="#F26E71"/>
<path d="M193.431 452.131C193.301 452.131 193.161 452.081 193.061 451.981C192.991 451.921 186.051 445.671 178.471 448.791C178.191 448.911 177.871 448.771 177.751 448.491C177.631 448.211 177.771 447.891 178.051 447.771C186.281 444.381 193.731 451.101 193.811 451.171C194.031 451.381 194.051 451.721 193.841 451.951C193.731 452.071 193.581 452.131 193.431 452.131Z" fill="#F26E71"/>
<path d="M224.381 371.48C224.311 371.48 224.241 371.47 224.181 371.45C223.741 371.34 223.471 370.89 223.581 370.45C223.611 370.33 224.361 367.47 227.301 365.99C229.871 364.69 233.231 364.87 237.281 366.52C237.701 366.69 237.901 367.17 237.731 367.6C237.561 368.02 237.081 368.23 236.651 368.05C233.061 366.59 230.171 366.39 228.041 367.46C225.771 368.61 225.181 370.83 225.181 370.85C225.091 371.23 224.751 371.48 224.381 371.48Z" fill="#223D4E"/>
<path d="M207.351 377.658C207.191 377.658 207.031 377.608 206.891 377.518C206.511 377.258 206.411 376.748 206.671 376.368C206.711 376.308 210.821 370.438 219.041 373.678C219.461 373.848 219.671 374.328 219.511 374.748C219.341 375.168 218.861 375.378 218.441 375.218C211.441 372.458 208.071 377.248 208.041 377.298C207.881 377.538 207.621 377.658 207.351 377.658Z" fill="#223D4E"/>
<path d="M222.761 389.47C221.831 389.47 221.071 389.26 220.691 388.71C219.961 387.65 220.931 386.3 221.711 385.37C225.381 381.03 221.191 376.84 221.011 376.67C220.681 376.35 220.681 375.83 220.991 375.5C221.311 375.17 221.831 375.16 222.161 375.48C224.081 377.34 226.721 382.01 222.981 386.44C222.331 387.21 222.161 387.62 222.111 387.78C222.761 388.01 225.181 387.56 227.391 386.78C227.821 386.63 228.291 386.86 228.441 387.29C228.591 387.72 228.361 388.19 227.931 388.34C226.501 388.85 224.381 389.47 222.761 389.47Z" fill="#F26E71"/>
<path d="M221.271 395.94C217.431 395.94 215.971 393.43 215.891 393.28C215.681 392.9 215.761 392.39 216.081 392.13C216.401 391.88 216.821 391.98 217.041 392.35C217.141 392.52 219.311 396.02 225.941 393.16C226.301 393 226.701 393.23 226.831 393.66C226.961 394.09 226.771 394.56 226.411 394.72C224.361 395.62 222.661 395.94 221.271 395.94Z" fill="#F26E71"/>
<path d="M214.471 382.711C215.625 382.711 216.561 381.776 216.561 380.621C216.561 379.467 215.625 378.531 214.471 378.531C213.317 378.531 212.381 379.467 212.381 380.621C212.381 381.776 213.317 382.711 214.471 382.711Z" fill="#0D191A"/>
<path d="M228.991 378.168C230.145 378.168 231.081 377.233 231.081 376.078C231.081 374.924 230.145 373.988 228.991 373.988C227.837 373.988 226.901 374.924 226.901 376.078C226.901 377.233 227.837 378.168 228.991 378.168Z" fill="#0D191A"/>
<path d="M397.751 553.438H343.651C340.211 553.438 338.061 549.718 339.771 546.738C340.571 545.348 342.051 544.488 343.651 544.488H397.751C401.191 544.488 403.341 548.208 401.631 551.188C400.841 552.578 399.361 553.438 397.751 553.438Z" fill="#E0E0E0"/>
<path d="M387.281 564.471H343.251C340.451 564.471 338.701 561.451 340.091 559.021C340.741 557.891 341.941 557.191 343.251 557.191H387.271C390.071 557.191 391.821 560.211 390.431 562.641C389.791 563.781 388.581 564.471 387.281 564.471Z" fill="#E0E0E0"/>
<path d="M350.671 523.801C350.671 523.641 350.571 523.531 350.411 523.501L345.691 522.771L344.871 518.341C344.831 518.121 344.591 518.031 344.341 518.141C344.241 518.181 344.151 518.251 344.081 518.341L340.481 522.751L335.321 523.431C335.071 523.461 334.831 523.681 334.781 523.921C334.761 524.021 334.781 524.121 334.841 524.191L337.331 527.651L334.961 532.501C334.841 532.741 334.931 532.971 335.161 533.011C335.251 533.031 335.361 533.011 335.461 532.971L340.601 530.691L344.291 533.001C344.471 533.111 344.771 533.031 344.951 532.821C345.021 532.731 345.071 532.641 345.081 532.541L345.771 527.681L350.431 524.241C350.571 524.141 350.671 523.961 350.671 523.801Z" fill="#FCCC3F"/>
<path d="M368.911 523.871C368.911 523.711 368.811 523.601 368.651 523.571L363.931 522.841L363.111 518.411C363.071 518.191 362.831 518.101 362.581 518.211C362.481 518.251 362.391 518.321 362.321 518.411L358.721 522.821L353.561 523.501C353.311 523.531 353.071 523.751 353.021 523.991C353.001 524.091 353.021 524.191 353.081 524.261L355.571 527.721L353.201 532.571C353.081 532.811 353.171 533.041 353.401 533.081C353.491 533.101 353.601 533.081 353.701 533.041L358.841 530.761L362.531 533.071C362.711 533.181 363.011 533.101 363.191 532.891C363.261 532.801 363.311 532.711 363.321 532.611L364.011 527.751L368.671 524.311C368.821 524.201 368.921 524.031 368.911 523.871Z" fill="#FCCC3F"/>
<path d="M387.161 523.941C387.161 523.781 387.061 523.671 386.901 523.641L382.181 522.911L381.361 518.481C381.321 518.261 381.081 518.171 380.831 518.281C380.731 518.321 380.641 518.391 380.571 518.481L376.971 522.891L371.811 523.571C371.561 523.601 371.321 523.821 371.271 524.061C371.251 524.161 371.271 524.261 371.331 524.331L373.821 527.791L371.451 532.641C371.331 532.881 371.421 533.111 371.651 533.151C371.741 533.171 371.851 533.151 371.951 533.111L377.091 530.831L380.781 533.141C380.961 533.251 381.261 533.171 381.441 532.961C381.511 532.871 381.561 532.781 381.571 532.681L382.261 527.821L386.921 524.381C387.061 524.271 387.161 524.101 387.161 523.941Z" fill="#FCCC3F"/>
<path d="M405.401 524C405.401 523.84 405.301 523.73 405.141 523.7L400.421 522.97L399.601 518.54C399.561 518.32 399.321 518.23 399.071 518.34C398.971 518.38 398.881 518.45 398.811 518.54L395.211 522.95L390.051 523.63C389.801 523.66 389.561 523.88 389.511 524.12C389.491 524.22 389.511 524.32 389.571 524.39L392.061 527.85L389.691 532.7C389.571 532.94 389.661 533.17 389.891 533.21C389.981 533.23 390.091 533.21 390.191 533.17L395.331 530.89L399.021 533.2C399.201 533.31 399.501 533.23 399.681 533.02C399.751 532.93 399.801 532.84 399.811 532.74L400.501 527.88L405.161 524.44C405.311 524.34 405.411 524.16 405.401 524Z" fill="#FCCC3F"/>
<path d="M423.651 524.07C423.651 523.91 423.551 523.8 423.391 523.77L418.671 523.04L417.851 518.61C417.811 518.39 417.571 518.3 417.321 518.41C417.221 518.45 417.131 518.52 417.061 518.61L413.461 523.02L408.301 523.7C408.051 523.73 407.811 523.95 407.761 524.19C407.741 524.29 407.761 524.39 407.821 524.46L410.311 527.92L407.941 532.77C407.821 533.01 407.911 533.24 408.141 533.28C408.231 533.3 408.341 533.28 408.441 533.24L413.581 530.96L417.271 533.27C417.451 533.38 417.751 533.3 417.931 533.09C418.001 533 418.051 532.91 418.061 532.81L418.751 527.95L423.411 524.51C423.551 524.4 423.651 524.23 423.651 524.07Z" fill="#FCCC3F"/>
<path d="M422.855 492.217C444.431 474.397 451.917 447.838 439.576 432.896C427.235 417.954 399.74 420.288 378.164 438.108C356.588 455.929 349.102 482.488 361.443 497.429C373.784 512.371 401.279 510.038 422.855 492.217Z" fill="#FCCC3F"/>
<path d="M377.271 456.689L378.581 455.829C380.741 454.409 383.651 455.059 385.001 457.269L389.921 465.299C391.311 467.569 394.341 468.179 396.501 466.629L426.391 445.139C428.481 443.639 431.391 444.149 432.841 446.269L433.641 447.429C435.061 449.489 434.551 452.309 432.511 453.759L393.741 481.209C391.631 482.699 388.711 482.159 387.281 480.009L375.981 463.059C374.561 460.949 375.141 458.079 377.271 456.689Z" fill="white"/>
<path d="M566.3 310.9H411C399.1 310.9 389.4 301.2 389.4 289.3V102.1C389.4 90.2 399.1 80.5 411 80.5H566.2C578.1 80.5 587.8 90.2 587.8 102.1V289.3C587.8 301.2 578.2 310.9 566.3 310.9Z" fill="white"/>
<path d="M666.1 180.701H564.3C552.4 180.701 542.7 171.001 542.7 159.101V144.401C542.7 132.501 552.4 122.801 564.3 122.801H666.1C678 122.801 687.7 132.501 687.7 144.401V159.101C687.6 171.101 678 180.701 666.1 180.701Z" fill="white"/>
<path d="M471.1 293.098H427.7C425.4 293.098 423.6 291.298 423.6 288.998C423.6 286.698 425.4 284.898 427.7 284.898H471.1C473.4 284.898 475.2 286.698 475.2 288.998C475.2 291.298 473.4 293.098 471.1 293.098Z" fill="#C9C9E2"/>
<path d="M560.5 292.7H517.1C514.8 292.7 513 290.9 513 288.6C513 286.3 514.8 284.5 517.1 284.5H560.5C562.8 284.5 564.6 286.3 564.6 288.6C564.6 290.9 562.7 292.7 560.5 292.7Z" fill="#C9C9E2"/>
<path d="M627.4 156.7H584C581.7 156.7 579.9 154.9 579.9 152.6C579.9 150.3 581.7 148.5 584 148.5H627.4C629.7 148.5 631.5 150.3 631.5 152.6C631.5 154.9 629.7 156.7 627.4 156.7Z" fill="#C9C9E2"/>
<path d="M658.3 156.7H640.7C638.4 156.7 636.6 154.9 636.6 152.6C636.6 150.3 638.4 148.5 640.7 148.5H658.3C660.6 148.5 662.4 150.3 662.4 152.6C662.4 154.9 660.6 156.7 658.3 156.7Z" fill="#C9C9E2"/>
<path d="M412.6 293.498H412.2C409.4 293.498 407.1 291.198 407.1 288.398V287.998C407.1 285.198 409.4 282.898 412.2 282.898H412.6C415.4 282.898 417.7 285.198 417.7 287.998V288.398C417.7 291.198 415.4 293.498 412.6 293.498Z" fill="#3B4FE1"/>
<path d="M502 293.1H501.6C498.8 293.1 496.5 290.8 496.5 288V287.6C496.5 284.8 498.8 282.5 501.6 282.5H502C504.8 282.5 507.1 284.8 507.1 287.6V288C507.1 290.8 504.8 293.1 502 293.1Z" fill="#C692FF"/>
<path d="M568.9 156.998H568.5C565.7 156.998 563.4 154.698 563.4 151.898V151.498C563.4 148.698 565.7 146.398 568.5 146.398H568.9C571.7 146.398 574 148.698 574 151.498V151.898C574 154.798 571.7 156.998 568.9 156.998Z" fill="#FFBD6F"/>
<path d="M406 270H563.5" stroke="#CCD0DD" stroke-width="0.8451" stroke-miterlimit="10"/>
<path d="M476.6 210.699L472.8 231.499L486.7 235.999L501.8 231.499L498.2 210.699H476.6Z" fill="#F5F5FC" stroke="black" stroke-width="1.2677" stroke-miterlimit="10"/>
<path d="M512.9 193.799C512.9 193.799 518.5 189.399 518.9 184.899C519.3 180.399 515 179.699 515 179.699L512.9 193.799Z" fill="#F5F5FC" stroke="black" stroke-width="1.2677" stroke-miterlimit="10"/>
<path d="M465.1 191.998C465.1 191.998 459.5 187.598 459.1 183.098C458.7 178.598 463 177.898 463 177.898L465.1 191.998Z" fill="#F5F5FC" stroke="black" stroke-width="1.2677" stroke-miterlimit="10"/>
<path d="M516.7 198.6C517.97 198.6 519 197.57 519 196.3C519 195.03 517.97 194 516.7 194C515.43 194 514.4 195.03 514.4 196.3C514.4 197.57 515.43 198.6 516.7 198.6Z" fill="#BAF2DD" stroke="black" stroke-width="1.6902" stroke-miterlimit="10"/>
<path d="M460.6 196.799C461.87 196.799 462.9 195.769 462.9 194.499C462.9 193.229 461.87 192.199 460.6 192.199C459.33 192.199 458.3 193.229 458.3 194.499C458.3 195.769 459.33 196.799 460.6 196.799Z" fill="#BAF2DD" stroke="black" stroke-width="1.6902" stroke-miterlimit="10"/>
<path d="M515.6 178.702C515.6 178.702 513.6 219.202 486.7 219.602C486.6 219.602 486.5 219.602 486.5 219.602C473 219.702 461.3 196.402 464 174.602L489.9 160.502L490.6 160.102L515.6 178.702Z" fill="#F5F5FC" stroke="black" stroke-width="1.2677" stroke-miterlimit="10"/>
<path d="M487 219.1C486.9 219.1 486.8 219.1 486.8 219.1C473.3 219.2 461.6 196.1 464.3 174.5L490.2 160.5C488.7 169.9 484.6 189.5 476.1 196.6C474.8 199.7 477.5 215.1 487 219.1Z" fill="#CCCCFF"/>
<path d="M487.7 206.3C484 206 483.2 200.5 483.2 200.5C483.2 200.5 486 201.9 488.8 202C491.6 202.1 494.2 201.1 494.2 201.1C494.2 201.1 494.3 206.7 487.7 206.3Z" fill="#21233E"/>
<path d="M478.5 188.1C479.494 188.1 480.3 187.294 480.3 186.3C480.3 185.306 479.494 184.5 478.5 184.5C477.506 184.5 476.7 185.306 476.7 186.3C476.7 187.294 477.506 188.1 478.5 188.1Z" fill="#21233E"/>
<path d="M498.3 188.498C499.294 188.498 500.1 187.693 500.1 186.698C500.1 185.704 499.294 184.898 498.3 184.898C497.306 184.898 496.5 185.704 496.5 186.698C496.5 187.693 497.306 188.498 498.3 188.498Z" fill="#21233E"/>
<path d="M488.8 192.102C488.8 192.102 492.2 196.102 489.6 196.902C487 197.702 487.9 198.502 487.9 198.502" stroke="black" stroke-width="1.2677" stroke-miterlimit="10" stroke-linecap="round"/>
<path d="M475.7 196.899C469.7 196.899 464.8 191.999 464.8 185.999V179.499C464.8 178.199 465.8 177.199 467.1 177.199H484.3C485.6 177.199 486.6 178.199 486.6 179.499V182.499V185.999C486.7 191.999 481.8 196.899 475.7 196.899Z" stroke="black" stroke-width="1.0373" stroke-miterlimit="10"/>
<path d="M501.9 196.899C495.9 196.899 491 191.999 491 185.999V179.499C491 178.199 492 177.199 493.3 177.199H510.5C511.8 177.199 512.8 178.199 512.8 179.499V185.999C512.9 191.999 508 196.899 501.9 196.899Z" stroke="black" stroke-width="1.0373" stroke-miterlimit="10"/>
<path d="M490.6 182.5H486.7" stroke="black" stroke-width="1.0373" stroke-miterlimit="10"/>
<path d="M494.8 122.1C468.8 119.1 463.2 141.6 466 156.3C466 156.3 460.3 166.8 462.3 177.8C462.3 177.8 481 183 490 167C490 167 497.2 186.2 516.4 180.5C516.4 180.5 519.4 165.2 515.6 158.6C515.6 158.7 528.6 126.1 494.8 122.1Z" fill="#21233E"/>
<path d="M468.8 151.8C468.8 151.8 475.9 141.8 492.6 144.8" stroke="#BFBFF0" stroke-width="2.5354" stroke-miterlimit="10" stroke-linecap="round"/>
<path d="M967.8 328.4H746.1C734.2 328.4 724.5 318.7 724.5 306.8V248.6C724.5 236.7 734.2 227 746.1 227H967.8C979.7 227 989.4 236.7 989.4 248.6V306.8C989.3 318.8 979.7 328.4 967.8 328.4Z" fill="white"/>
<path d="M952.1 262.098H828.3C826 262.098 824.2 260.298 824.2 257.998C824.2 255.698 826 253.898 828.3 253.898H952.1C954.4 253.898 956.2 255.698 956.2 257.998C956.2 260.298 954.4 262.098 952.1 262.098Z" fill="#C9C9E2"/>
<path d="M891.5 279.302H828.3C826 279.302 824.2 277.502 824.2 275.202C824.2 272.902 826 271.102 828.3 271.102H891.5C893.8 271.102 895.6 272.902 895.6 275.202C895.6 277.502 893.8 279.302 891.5 279.302Z" fill="#C9C9E2"/>
<path d="M874.9 294.802H828.3C826 294.802 824.2 293.002 824.2 290.702C824.2 288.402 826 286.602 828.3 286.602H874.9C877.2 286.602 879 288.402 879 290.702C879 292.902 877.2 294.802 874.9 294.802Z" fill="#C9C9E2"/>
<path d="M757.8 252.2C757.8 252.2 755.6 260.1 755.4 263.9C755.2 267.7 752.4 282.2 767.9 281.7C767.9 281.7 767.8 284.3 767.5 284.9C767.3 285.6 766.7 287.3 764.8 288.6C763 290 760.8 313.6 760.8 313.6H788.8L784.5 284.2L782 271.7C782 271.7 786.2 260.2 786 258.1C785.8 256 782.2 250.1 777.5 250C773 250 757.8 252.2 757.8 252.2Z" fill="#F5F5FC" stroke="black" stroke-width="0.4684" stroke-miterlimit="10"/>
<path d="M767.2 284.598L769.8 293.798L770.9 308.698L774.3 294.598L784.5 283.898C784.5 283.898 786.7 288.198 788.2 288.398C789.7 288.598 793 289.998 794.9 290.198C796.9 290.298 805.5 292.498 807.1 294.298C808.7 296.098 812.1 313.798 812.1 313.798H741.7C741.7 313.798 744 294.598 754 290.598C754 290.598 755 289.998 756.3 289.598C757.6 289.198 761.5 288.698 763.4 288.798V287.998C763.4 287.998 764.5 287.998 765.3 287.198C766.1 286.498 766.6 284.498 767.2 284.598Z" fill="#3B4FE1" stroke="black" stroke-width="0.4684" stroke-miterlimit="10"/>
<path d="M763.5 288.199L765.2 302.799L769.5 294.099" stroke="black" stroke-width="0.4684" stroke-miterlimit="10" stroke-linecap="round"/>
<path d="M774.5 294.499L779 302.599L788 288.199" stroke="black" stroke-width="0.4684" stroke-miterlimit="10" stroke-linecap="round"/>
<path d="M752.9 308.297L752.4 313.697" stroke="black" stroke-width="0.4684" stroke-miterlimit="10" stroke-linecap="round"/>
<path d="M757 266.898C759.43 266.898 761.4 264.928 761.4 262.498C761.4 260.068 759.43 258.098 757 258.098C754.57 258.098 752.6 260.068 752.6 262.498C752.6 264.928 754.57 266.898 757 266.898Z" stroke="black" stroke-width="0.4684" stroke-miterlimit="10"/>
<path d="M767.8 267.097C770.23 267.097 772.2 265.127 772.2 262.697C772.2 260.267 770.23 258.297 767.8 258.297C765.37 258.297 763.4 260.267 763.4 262.697C763.4 265.127 765.37 267.097 767.8 267.097Z" stroke="black" stroke-width="0.4684" stroke-miterlimit="10"/>
<path d="M761.1 260.898H763.7" stroke="black" stroke-width="0.3122" stroke-miterlimit="10"/>
<path d="M772 260.898H773.7" stroke="black" stroke-width="0.3122" stroke-miterlimit="10"/>
<path d="M763 264.699H760.6C759.4 264.699 758.5 265.599 758.5 266.799C758.5 267.999 759.4 268.899 760.6 268.899H763" fill="#F5F5FC"/>
<path d="M763 264.699H760.6C759.4 264.699 758.5 265.599 758.5 266.799C758.5 267.999 759.4 268.899 760.6 268.899H763" stroke="black" stroke-width="0.4684" stroke-miterlimit="10"/>
<path d="M766.7 263.598V263.098C766.7 262.398 767.2 261.898 767.9 261.898C768.6 261.898 769.1 262.398 769.1 263.098V263.598" stroke="black" stroke-width="0.6245" stroke-miterlimit="10" stroke-linecap="round"/>
<path d="M756.9 263.598V263.098C756.9 262.398 757.4 261.898 758.1 261.898C758.8 261.898 759.3 262.398 759.3 263.098V263.598" stroke="black" stroke-width="0.6245" stroke-miterlimit="10" stroke-linecap="round"/>
<path d="M762.3 273.298C762.3 273.298 767.1 274.398 768.3 270.398" stroke="black" stroke-width="0.6245" stroke-miterlimit="10" stroke-linecap="round"/>
<path d="M767.9 281.699C767.9 281.699 772.3 281.799 775.9 276.199" stroke="black" stroke-width="0.4684" stroke-miterlimit="10" stroke-linecap="round"/>
<path d="M755.4 242.499C752.8 243.999 746.8 252.699 757.4 254.099C757.4 254.099 771.5 254.699 773.3 254.299C775.1 253.899 775.8 255.099 775.4 256.399C775 257.799 772.6 263.299 773.9 266.099H775.6C775.6 266.099 775.7 261.899 779.6 261.399C783.5 260.899 783.5 264.999 782.9 266.099C782.3 267.199 779.8 269.899 779.8 270.699C779.8 271.499 779.3 272.999 782 272.999C784.7 272.999 788.8 262.099 788.5 258.199C788.2 254.299 785.1 239.699 768.4 245.399C768.4 245.399 764.4 243.099 762.7 243.199C761 243.299 759.2 243.199 758.4 242.999C757.2 242.599 756.2 241.999 755.4 242.499Z" fill="#21233E"/>
<path d="M520 488.699H508.6C496.7 488.699 487 478.999 487 467.099V376.299C487 364.399 496.7 354.699 508.6 354.699H520C531.9 354.699 541.6 364.399 541.6 376.299V467.099C541.5 478.999 531.9 488.699 520 488.699Z" fill="white"/>
<path d="M509.2 386.401H490.4C480.5 386.401 472.5 378.401 472.5 368.501V349.701C472.5 339.801 480.5 331.801 490.4 331.801H509.2C519.1 331.801 527.1 339.801 527.1 349.701V368.501C527.1 378.401 519.1 386.401 509.2 386.401Z" fill="#1A89FF"/>
<path d="M507.8 451.8H517.6C517.8 451.8 518 451.6 518 451.4C518 451.2 517.8 451 517.6 451H507.8C507.6 451 507.4 451.2 507.4 451.4C507.4 451.7 507.6 451.8 507.8 451.8Z" fill="#B7B7C7"/>
<path d="M515.9 454.199H509.5C509.3 454.199 509.1 454.399 509.1 454.599C509.1 454.799 509.3 454.999 509.5 454.999H515.9C516.1 454.999 516.3 454.799 516.3 454.599C516.3 454.299 516.1 454.199 515.9 454.199Z" fill="#B7B7C7"/>
<path d="M514.5 457.199H511C510.8 457.199 510.6 457.399 510.6 457.599C510.6 457.799 510.8 457.999 511 457.999H514.6C514.8 457.999 515 457.799 515 457.599C514.9 457.399 514.7 457.199 514.5 457.199Z" fill="#B7B7C7"/>
<path d="M504.8 458.201L501.8 456.001L504.8 453.901V458.201ZM519.9 448.701V458.701L512.7 463.901L505.5 458.701V448.701H519.9ZM512.4 446.601C512.6 446.401 512.9 446.401 513.1 446.601L514.5 448.001H511L512.4 446.601ZM523.6 456.001L520.6 458.201V453.901L523.6 456.001ZM515.3 462.901L523.2 468.701H502.4L510.3 462.901L512.6 464.601C512.7 464.601 512.7 464.701 512.8 464.701C512.9 464.701 512.9 464.701 513 464.601L515.3 462.901ZM523.9 456.701V468.301L515.9 462.401L523.9 456.701ZM509.6 462.501L501.6 468.401V456.801L509.6 462.501ZM500.9 469.201C500.9 469.301 500.9 469.301 500.9 469.301L501 469.401C501 469.401 501.1 469.401 501.2 469.401H524.2C524.3 469.401 524.3 469.401 524.4 469.401C524.4 469.401 524.5 469.401 524.5 469.301C524.5 469.301 524.5 469.301 524.5 469.201C524.5 469.201 524.5 469.201 524.5 469.101V456.101C524.5 456.101 524.5 456.101 524.5 456.001L520.7 453.301V448.601C520.7 448.401 520.5 448.201 520.3 448.201H515.6L513.7 446.301C513.2 445.801 512.5 445.801 512 446.301L510 448.201H505.2C505 448.201 504.8 448.401 504.8 448.601V453.301L501 456.001C501 456.001 501 456.001 501 456.101V469.101C500.9 469.101 500.9 469.101 500.9 469.201C500.9 469.101 500.9 469.101 500.9 469.201Z" fill="#B7B7C7"/>
<path d="M491.8 349.5C492.8 350.8 493.9 352.2 494.9 353.5C495.2 354.1 495.2 354.4 495.1 354.7C495 355 494.8 355.2 494.4 355.5C493.1 356.7 492.6 358 492.7 359.1C492.8 360.3 493.5 361.4 494.4 362.2C495.3 363.1 496 363.8 496.8 364.6C497.6 365.5 498.7 366.1 499.9 366.3C501.1 366.4 502.4 365.9 503.5 364.6C503.8 364.3 504 364 504.3 363.9C504.6 363.8 504.9 363.8 505.5 364.1C506.8 365.1 508.2 366.2 509.5 367.2C510 367.7 510 368 509.9 368.4C509.8 368.8 509.4 369.2 509 369.6C506.5 372.1 504.3 372.9 502 372.5C499.7 372.1 497.3 370.4 494.5 367.6C493.4 366.5 492.1 365.2 491.1 364.2C488.3 361.4 486.6 359 486.2 356.7C485.8 354.4 486.6 352.2 489.1 349.7C489.5 349.3 489.9 349 490.3 348.8C491 349 491.4 349 491.8 349.5ZM495 361.8C494.2 361.1 493.6 360 493.5 359.1C493.4 358.1 493.8 357.1 495 356C495.3 355.7 495.7 355.4 495.9 354.9C496.1 354.4 496 353.9 495.6 353.2C494.5 351.8 493.4 350.3 492.4 349C491.8 348.4 491.1 348.3 490.5 348.5C489.9 348.7 489.5 349.1 489 349.5C486.4 352.1 485.4 354.5 485.9 357.1C486.3 359.6 488.1 362.1 491 365L494.4 368.4C497.2 371.2 499.7 373 502.3 373.5C504.8 373.9 507.3 372.9 509.9 370.4C510.4 369.9 510.7 369.5 510.9 368.9C511.1 368.3 511 367.6 510.4 367C509.1 366 507.6 364.9 506.2 363.8C505.5 363.4 504.9 363.3 504.5 363.5C504 363.7 503.7 364 503.4 364.4C502.3 365.6 501.3 365.9 500.3 365.9C499.4 365.8 498.3 365.2 497.6 364.4" fill="white"/>
<path d="M495 361.8C494.2 361.1 493.6 360 493.5 359.1C493.4 358.1 493.8 357.1 495 356C495.3 355.7 495.7 355.4 495.9 354.9C496.1 354.4 496 353.9 495.6 353.2C494.5 351.8 493.4 350.3 492.4 349C491.8 348.4 491.1 348.3 490.5 348.5C489.9 348.7 489.5 349.1 489 349.5C486.4 352.1 485.4 354.5 485.9 357.1C486.3 359.6 488.1 362.1 491 365L494.4 368.4C497.2 371.2 499.7 373 502.3 373.5C504.8 373.9 507.3 372.9 509.9 370.4C510.4 369.9 510.7 369.5 510.9 368.9C511.1 368.3 511 367.6 510.4 367C509.1 366 507.6 364.9 506.2 363.8C505.5 363.4 504.9 363.3 504.5 363.5C504 363.7 503.7 364 503.4 364.4C502.3 365.6 501.3 365.9 500.3 365.9C499.4 365.8 498.3 365.2 497.6 364.4M491.8 349.5C492.8 350.8 493.9 352.2 494.9 353.5C495.2 354.1 495.2 354.4 495.1 354.7C495 355 494.8 355.2 494.4 355.5C493.1 356.7 492.6 358 492.7 359.1C492.8 360.3 493.5 361.4 494.4 362.2C495.3 363.1 496 363.8 496.8 364.6C497.6 365.5 498.7 366.1 499.9 366.3C501.1 366.4 502.4 365.9 503.5 364.6C503.8 364.3 504 364 504.3 363.9C504.6 363.8 504.9 363.8 505.5 364.1C506.8 365.1 508.2 366.2 509.5 367.2C510 367.7 510 368 509.9 368.4C509.8 368.8 509.4 369.2 509 369.6C506.5 372.1 504.3 372.9 502 372.5C499.7 372.1 497.3 370.4 494.5 367.6C493.4 366.5 492.1 365.2 491.1 364.2C488.3 361.4 486.6 359 486.2 356.7C485.8 354.4 486.6 352.2 489.1 349.7C489.5 349.3 489.9 349 490.3 348.8C491 349 491.4 349 491.8 349.5Z" stroke="white" stroke-width="0.6479" stroke-miterlimit="10"/>
<path d="M499.3 349.202C499.3 349.402 499.5 349.502 499.7 349.502C505.5 349.502 510.3 354.202 510.3 360.102C510.3 360.302 510.5 360.402 510.6 360.402C510.7 360.402 510.9 360.202 510.9 360.102C510.9 353.902 505.9 348.802 499.6 348.802C499.5 348.902 499.3 349.102 499.3 349.202ZM499.3 345.202C499.3 345.402 499.5 345.502 499.7 345.502C507.8 345.502 514.4 352.102 514.4 360.202C514.4 360.402 514.6 360.502 514.7 360.502C514.8 360.502 515 360.302 515 360.202C515 351.702 508.1 344.902 499.7 344.902C499.5 344.802 499.3 345.002 499.3 345.202Z" fill="white" stroke="white" stroke-width="0.6479" stroke-miterlimit="10"/>
<path d="M521.1 423.299C521.1 423.799 520.7 424.199 520.2 424.199H509.4C508.9 424.199 508.5 424.399 508.3 424.799L506.8 427.099C506.7 427.299 506.5 427.299 506.4 427.299C506.3 427.299 506.1 427.299 506 427.099L504.7 424.799C504.5 424.399 504 424.099 503.6 424.099H501.7C501.2 424.099 500.8 423.699 500.8 423.199V411.399C500.8 410.899 501.2 410.499 501.7 410.499H520.1C520.6 410.499 521 410.899 521 411.399L521.1 423.299ZM520.2 409.699H501.8C500.8 409.699 500 410.499 500 411.499V423.299C500 424.299 500.8 425.099 501.8 425.099H503.7C503.9 425.099 504 425.199 504.1 425.299L505.4 427.599C505.6 427.999 506 428.299 506.5 428.299C507 428.299 507.4 428.099 507.6 427.699L509.1 425.399C509.2 425.299 509.3 425.199 509.5 425.199H520.3C521.3 425.199 522.1 424.399 522.1 423.399V411.599C522 410.499 521.2 409.699 520.2 409.699Z" fill="#B7B7C7"/>
<path d="M524.8 405.699H506.4C505.4 405.699 504.6 406.499 504.6 407.499V408.099C504.6 408.299 504.8 408.499 505 408.499C505.2 408.499 505.4 408.299 505.4 408.099V407.499C505.4 406.999 505.8 406.599 506.3 406.599H524.7C525.2 406.599 525.6 406.999 525.6 407.499V419.299C525.6 419.799 525.2 420.199 524.7 420.199H524C523.8 420.199 523.6 420.399 523.6 420.599C523.6 420.799 523.8 420.999 524 420.999H524.8C525.8 420.999 526.6 420.199 526.6 419.199V407.399C526.5 406.499 525.7 405.699 524.8 405.699Z" fill="#B7B7C7"/>
<path d="M517.4 413.398H504.6C504.4 413.398 504.2 413.598 504.2 413.798C504.2 413.998 504.4 414.198 504.6 414.198H517.4C517.6 414.198 517.8 413.998 517.8 413.798C517.8 413.598 517.6 413.398 517.4 413.398Z" fill="#B7B7C7"/>
<path d="M517.4 416.898H504.6C504.4 416.898 504.2 417.098 504.2 417.298C504.2 417.498 504.4 417.698 504.6 417.698H517.4C517.6 417.698 517.8 417.498 517.8 417.298C517.8 417.098 517.6 416.898 517.4 416.898Z" fill="#B7B7C7"/>
<path d="M517.4 420.5H504.6C504.4 420.5 504.2 420.7 504.2 420.9C504.2 421.1 504.4 421.3 504.6 421.3H517.4C517.6 421.3 517.8 421.1 517.8 420.9C517.8 420.6 517.6 420.5 517.4 420.5Z" fill="#B7B7C7"/>
<path d="M609.9 512.101C609.9 512.101 611.7 532.201 611 539.101C610.3 546.001 609.9 552.501 609.9 552.501V604.301L657 606.901L657.9 566.101L674.9 607.601H728V529.001C728 529.001 719.7 511.601 712.2 512.001C704.6 512.401 613.6 505.301 613.6 505.301L609.9 512.101Z" fill="#F5F5FC" stroke="black" stroke-width="2.54" stroke-miterlimit="10"/>
<path d="M651.9 348.7C651.9 348.7 625.8 355.3 620.4 358.4C615 361.5 591.8 377.3 589.5 401.6C587.1 425.9 585.6 430.5 583.9 436.6C582.2 442.7 578.6 447.7 580.5 448.3C582.4 449 612.1 446.4 612.1 446.4C612.1 446.4 603.8 506.4 606 513.9C608.2 521.4 615.4 514.2 621.5 511.7C627.6 509.1 637.1 513.9 644.1 516.1C651.1 518.3 688.5 520.9 696.1 520.5C703.7 520.1 711.1 522.7 718.4 526.8C725.7 530.9 738.5 544.5 738.1 526.8C737.8 509.1 739.1 441.1 739.1 441.1C739.1 441.1 747.6 444.5 750.2 444.5C752.8 444.5 753.1 443.6 751.7 436.2C750.3 428.7 746.9 409 746.9 399.1C746.9 389.2 737.9 358.3 715.6 352C693.3 345.7 682.9 344.5 678.7 344.7C674.5 344.9 651.9 348.7 651.9 348.7Z" fill="#3B3BE2" stroke="black" stroke-width="2.54" stroke-miterlimit="10"/>
<path d="M716 429.801C716 429.801 705.9 429.901 708.5 422.201C711.1 414.501 714.5 413.201 714.5 403.301C714.5 393.401 719.6 366.801 735.1 367.001" stroke="black" stroke-width="2.54" stroke-miterlimit="10" stroke-linecap="round"/>
<path d="M616 370.801H634C636.5 370.801 638.7 372.601 639.3 375.001L646.6 407.801C647.4 411.201 644.8 414.401 641.3 414.401H623.9C621.4 414.401 619.2 412.701 618.6 410.301L610.7 377.501C610 374.101 612.5 370.801 616 370.801Z" fill="#F5F5FC" stroke="black" stroke-width="1.6933" stroke-miterlimit="10"/>
<path d="M606.3 388.199C604.2 392.599 604.6 396.599 607.6 403.199C610.6 409.799 613.3 411.599 609.8 416.099C606.3 420.599 583 449.299 579.8 457.899C576.6 466.499 575.5 475.699 582.6 479.799C589.7 483.899 599.7 480.499 607 467.599C614.4 454.799 624 418.999 624 418.999C624 418.999 625.5 412.999 624 409.799C622.5 406.599 620.4 404.399 621.4 403.199C622.3 402.099 624 401.699 624.7 402.299C625.3 402.899 626.3 406.399 626.3 406.399C626.3 406.399 630 406.399 628 400.599C628 400.599 629.6 397.799 628.6 395.199C628.6 395.199 628.5 391.499 626.4 389.499C626.4 389.499 623.3 384.299 616.6 387.099C616.6 387.099 616.5 383.899 622.5 381.199C628.5 378.499 627.7 377.799 627.3 377.299C626.9 376.799 624.9 375.399 621.2 377.299C617.5 379.199 609 382.599 606.3 388.199Z" fill="#F5F5FC" stroke="black" stroke-width="2.54" stroke-miterlimit="10"/>
<path d="M644 379.701C644 379.701 643.3 382.501 646.1 382.701C648.9 382.901 656.5 385.001 657.9 386.001C659.3 387.101 651.5 387.901 651.4 391.201C651.3 394.501 652.2 395.301 652.2 395.301C652.2 395.301 650.9 396.401 651 398.601C651.2 400.701 652.7 401.501 652.7 401.501C652.7 401.501 650.5 403.401 651 404.901C651.4 406.401 652 406.901 652 406.901C652 406.901 649.9 408.801 651 410.901C652 413.001 661.2 414.901 661.2 414.901C661.2 414.901 668.2 427.201 674.4 428.301C674.4 428.301 680.8 435.101 689.4 448.001C697.9 460.901 712.7 484.601 721.8 485.601C731 486.601 740.2 483.501 742.2 469.901C744.2 456.301 744.5 443.001 744.5 443.001L717 430.501L715.5 440.101L683.7 412.601C683.7 412.601 675.5 404.201 672.9 398.301C670.1 392.501 669 378.401 644 379.701Z" fill="#F5F5FC" stroke="black" stroke-width="2.54" stroke-miterlimit="10"/>
<path d="M731.4 455.601L715.4 440.301" stroke="black" stroke-width="1.6933" stroke-miterlimit="10" stroke-linecap="round"/>
<path d="M604.5 284.2C604.5 284.2 597.2 270.5 614.1 265.8C614.1 265.8 620.2 255.8 634.1 252.7C648 249.6 655.1 259.8 655.1 259.8C655.1 259.8 677.9 250.8 680 287.9C682 325 676.5 322.5 676.5 322.5L620.4 312C620.4 312 613.4 316.4 608.9 313.4C604.4 310.4 601.3 304.7 604.5 298.7C604.5 298.7 596.6 292.5 604.5 284.2Z" fill="#21233E"/>
<path d="M620.4 310.6C620.4 310.6 623.2 306.9 623 301.6C623 301.6 636.7 301 640.2 285.4C640.2 285.4 643 279.3 653.3 280.1C653.3 280.1 651.8 285.2 654.2 285.5C656.5 285.8 668.8 292.8 667.9 302.5C667.9 302.5 671.3 300.6 671.3 297.5C671.3 294.4 671.7 292 674.7 290.8C677.7 289.6 682 290.3 681.2 296.3C680.3 302.4 679.2 307.5 673.3 310.6C673.3 310.6 679.2 343.8 682.8 345.4C682.8 345.4 690 357.6 679 362.3C667.9 367 652.2 367.4 650 360.5C650 360.5 650.3 348.6 649.5 346.8C649.5 346.8 639.4 347.1 632.5 336.9C625.4 326.6 620 313.2 620.4 310.6Z" fill="#F5F5FC" stroke="black" stroke-width="2.54" stroke-miterlimit="10"/>
<path d="M636 305.898C636 305.898 639.8 314.898 639.8 320.498C639.8 326.098 640.1 326.498 647.3 324.198" stroke="black" stroke-width="1.6933" stroke-miterlimit="10" stroke-linecap="round"/>
<path d="M651.2 333.898C645.6 336.298 640.7 331.898 640.7 331.898L655.5 325.398C655.5 325.398 655 332.298 651.2 333.898Z" fill="#21233E"/>
<path d="M643 301.7C643 301.7 647.7 293.8 656.9 298.2" stroke="black" stroke-width="1.6933" stroke-miterlimit="10" stroke-linecap="round"/>
<path d="M632.2 305.3C632.2 305.3 628.4 301.5 621.3 308.9" stroke="black" stroke-width="1.6933" stroke-miterlimit="10" stroke-linecap="round"/>
<path d="M651.099 307.441C652.255 306.912 652.67 305.344 652.026 303.937C651.383 302.531 649.925 301.819 648.77 302.348C647.615 302.876 647.2 304.445 647.843 305.851C648.486 307.257 649.944 307.969 651.099 307.441Z" fill="#21233E"/>
<path d="M630.79 313.459C631.895 312.953 632.269 311.403 631.626 309.997C630.982 308.591 629.565 307.861 628.46 308.366C627.355 308.871 626.981 310.421 627.624 311.828C628.268 313.234 629.685 313.964 630.79 313.459Z" fill="#21233E"/>
<path d="M667.9 328.398C667.9 328.398 665 347.198 649.3 346.698" stroke="black" stroke-width="2.54" stroke-miterlimit="10" stroke-linecap="round"/>
<path d="M898.8 370.59C883.76 370.05 864.18 372.72 861.61 390.87C861 395.14 860.61 398.79 857.5 402.12C854.85 404.95 850.79 406.09 848.61 409.36C847.63 410.83 846.89 412.49 846.21 414.11C844.31 418.63 843.02 423.5 842.71 428.4C841.85 441.8 850.43 449.92 863.51 451C868.95 451.45 874.59 451.02 879.95 450.04L908.24 444.85C908.24 444.85 912.01 459.23 935.11 448.15C958.21 437.07 940.06 420.34 940.06 420.34C940.06 420.34 920.73 406.67 921.91 397.24C923.08 387.8 918.37 371.3 898.8 370.59Z" fill="#F9A136"/>
<path d="M864.06 441.87C857.27 441.87 851.74 436.34 851.74 429.55C851.74 422.76 857.27 417.23 864.06 417.23C870.85 417.23 876.38 422.76 876.38 429.55C876.38 436.34 870.86 441.87 864.06 441.87ZM864.06 418.73C858.09 418.73 853.24 423.58 853.24 429.55C853.24 435.52 858.09 440.37 864.06 440.37C870.03 440.37 874.88 435.52 874.88 429.55C874.88 423.58 870.03 418.73 864.06 418.73Z" fill="white"/>
<path d="M889.61 382.378C889.54 382.378 889.48 382.368 889.41 382.338C889.16 382.228 889.04 381.938 889.15 381.678C889.29 381.348 892.63 373.598 896.93 372.368C897.2 372.288 897.47 372.448 897.55 372.708C897.63 372.978 897.47 373.248 897.21 373.328C893.37 374.428 890.11 381.988 890.08 382.068C889.99 382.268 889.81 382.378 889.61 382.378Z" fill="#934C22"/>
<path d="M928.62 450.06C928.54 450.06 928.46 450.04 928.39 450C928.15 449.87 928.05 449.57 928.18 449.32C931.57 442.89 932.37 436.85 930.57 431.36C927.62 422.36 918.59 417.88 918.49 417.83C918.24 417.71 918.14 417.41 918.26 417.16C918.38 416.91 918.68 416.81 918.93 416.93C919.32 417.12 928.44 421.64 931.52 431.05C933.41 436.81 932.58 443.11 929.06 449.79C928.97 449.96 928.8 450.06 928.62 450.06Z" fill="#934C22"/>
<path d="M846.04 433.461C845.8 433.461 845.59 433.251 845.59 432.981C845.45 425.131 853.66 414.191 854.01 413.731C854.17 413.521 854.45 413.491 854.64 413.661C854.83 413.831 854.86 414.141 854.7 414.351C854.62 414.461 846.35 425.471 846.49 432.971C846.49 433.231 846.3 433.461 846.04 433.461Z" fill="#934C22"/>
<path d="M903.34 423.859C903.34 423.859 890.98 445.039 910.79 455.439L911.58 461.319L885.29 492.509L873.53 490.739L868.82 458.579C868.82 458.579 880.37 460.829 880.64 447.879C880.68 446.019 880.49 443.849 880 441.319C880.06 441.609 872.78 438.869 872.28 438.529C866.04 434.189 863.8 426.319 863.3 419.099C862.72 410.779 864.41 396.409 873.53 392.479C880.39 389.529 886.08 392.869 888.43 385.219C888.43 385.219 896.47 406.989 907.07 409.339C907.07 409.339 915.11 407.379 915.89 412.679C916.68 417.969 914.32 423.469 903.34 423.859Z" fill="#C5503B"/>
<path d="M889.61 437C889.06 442.16 883.81 446.01 880.64 447.88C880.68 446.02 880.49 443.85 880 441.32C888.04 440.33 889.61 437 889.61 437Z" fill="#833823"/>
<path d="M873.18 457.648C873.18 457.648 870.59 503.408 886.2 486.268C901.81 469.128 911.72 454.508 911.72 454.508C911.72 454.508 922.31 457.028 926.68 457.028C931.05 457.028 947.01 461.568 952.39 479.548C957.77 497.528 962.14 506.768 966.67 510.968C971.21 515.168 998.6 549.118 966.67 567.768L923.15 550.288C923.15 550.288 923.82 565.078 911.72 567.768C899.62 570.458 848.87 567.768 848.87 567.768C849.12 563.348 849.22 558.918 849.23 554.498C849.24 549.018 849.28 543.318 848.34 537.818C847.89 535.198 847.4 532.458 846.03 530.148C843.99 526.698 840.53 524.048 838.99 520.318C838.76 519.758 837.65 516.418 838.28 516.008C838.28 516.008 810.39 533.988 800.97 532.978C791.56 531.968 780.97 527.768 779.8 512.478C778.63 497.188 807.7 489.798 807.7 489.798C807.7 489.798 821.65 482.408 831.56 468.458C841.47 454.508 873.18 457.648 873.18 457.648Z" fill="#F9C1C6"/>
<path d="M838.28 516.511C838.02 516.511 837.8 516.311 837.78 516.051C836.79 502.341 841.24 492.391 845.16 486.451C849.41 480.011 853.83 476.871 854.01 476.731C854.24 476.571 854.55 476.631 854.71 476.851C854.87 477.081 854.81 477.391 854.59 477.551C854.41 477.671 836.92 490.311 838.78 515.971C838.8 516.251 838.59 516.481 838.32 516.501C838.3 516.511 838.29 516.511 838.28 516.511Z" fill="#D6919A"/>
<path d="M926.38 530.081C926.13 530.081 925.91 529.881 925.88 529.631C925.87 529.551 925.13 521.521 923.17 513.961C921.2 506.351 917.79 489.331 917.76 489.161C917.71 488.891 917.88 488.631 918.15 488.571C918.42 488.521 918.68 488.691 918.74 488.961C918.77 489.131 922.17 506.121 924.14 513.701C926.12 521.341 926.87 529.451 926.88 529.531C926.9 529.811 926.7 530.051 926.43 530.071C926.41 530.081 926.39 530.081 926.38 530.081Z" fill="#D6919A"/>
<path d="M915.308 466.427L914.495 467.008L921.102 476.261L921.916 475.68L915.308 466.427Z" fill="#D6919A"/>
<path d="M912.939 476.766L905.25 483.422L905.904 484.178L913.594 477.522L912.939 476.766Z" fill="#D6919A"/>
<path d="M892.868 485.64L892.056 486.223L898.178 494.765L898.991 494.183L892.868 485.64Z" fill="#D6919A"/>
<path d="M885.016 502.083L877.329 508.953L877.996 509.699L885.683 502.828L885.016 502.083Z" fill="#D6919A"/>
<path d="M867.821 487.197L867.009 487.781L872.848 495.899L873.66 495.315L867.821 487.197Z" fill="#D6919A"/>
<path d="M862.522 473.885L853.97 481.723L854.646 482.46L863.198 474.622L862.522 473.885Z" fill="#D6919A"/>
<path d="M832.62 477.811L824.505 485.574L825.196 486.297L833.311 478.534L832.62 477.811Z" fill="#D6919A"/>
<path d="M841.619 466.405L840.824 467.012L847.227 475.408L848.023 474.802L841.619 466.405Z" fill="#D6919A"/>
<path d="M863.582 459.199L855.747 465.316L856.363 466.105L864.198 459.988L863.582 459.199Z" fill="#D6919A"/>
<path d="M836.481 487.735L835.73 488.395L840.856 494.234L841.608 493.574L836.481 487.735Z" fill="#D6919A"/>
<path d="M814.301 495.24L805.632 503.23L806.31 503.966L814.979 495.976L814.301 495.24Z" fill="#D6919A"/>
<path d="M819.974 493.605L819.167 494.195L825.424 502.739L826.231 502.149L819.974 493.605Z" fill="#D6919A"/>
<path d="M790.825 518.895L785.529 524.43L786.252 525.121L791.547 519.586L790.825 518.895Z" fill="#D6919A"/>
<path d="M801.324 510.383L800.541 511.004L804.754 516.316L805.537 515.695L801.324 510.383Z" fill="#D6919A"/>
<path d="M809.974 520.554L802.69 526.93L803.349 527.682L810.633 521.307L809.974 520.554Z" fill="#D6919A"/>
<path d="M812.977 510.379L812.209 511.02L818.174 518.168L818.942 517.527L812.977 510.379Z" fill="#D6919A"/>
<path d="M831.78 511.333L824.078 517.441L824.7 518.225L832.401 512.117L831.78 511.333Z" fill="#D6919A"/>
<path d="M856.15 502.037L847.325 508.918L847.94 509.707L856.765 502.826L856.15 502.037Z" fill="#D6919A"/>
<path d="M862.683 510.401L861.871 510.984L868.008 519.529L868.82 518.945L862.683 510.401Z" fill="#D6919A"/>
<path d="M850.797 527.009L846.893 532.441L847.705 533.025L851.609 527.593L850.797 527.009Z" fill="#D6919A"/>
<path d="M858.968 536.596L858.205 537.242L864.967 545.223L865.73 544.577L858.968 536.596Z" fill="#D6919A"/>
<path d="M853.921 552.85L848.875 558.863L849.641 559.506L854.687 553.493L853.921 552.85Z" fill="#D6919A"/>
<path d="M877.328 554.014L870.839 560.266L871.533 560.986L878.022 554.735L877.328 554.014Z" fill="#D6919A"/>
<path d="M888.537 537.578L887.756 538.203L892.086 543.614L892.867 542.989L888.537 537.578Z" fill="#D6919A"/>
<path d="M904.891 550.758L897.071 557.855L897.743 558.596L905.563 551.499L904.891 550.758Z" fill="#D6919A"/>
<path d="M912.26 559.491L911.439 560.062L915.289 565.595L916.11 565.024L912.26 559.491Z" fill="#D6919A"/>
<path d="M909.109 498.889L901.788 504.785L902.416 505.564L909.736 499.667L909.109 498.889Z" fill="#D6919A"/>
<path d="M915.295 510.396L914.504 511.008L921.113 519.55L921.904 518.938L915.295 510.396Z" fill="#D6919A"/>
<path d="M889.86 512.425L889.071 513.039L893.04 518.136L893.829 517.522L889.86 512.425Z" fill="#D6919A"/>
<path d="M926.343 456.648L921.19 460.992L921.834 461.757L926.988 457.413L926.343 456.648Z" fill="#D6919A"/>
<path d="M931.961 468.791L931.138 469.359L936.704 477.426L937.527 476.858L931.961 468.791Z" fill="#D6919A"/>
<path d="M932.93 485.537L926.054 491.156L926.687 491.931L933.563 486.311L932.93 485.537Z" fill="#D6919A"/>
<path d="M948.085 485.538L940.145 492.27L940.791 493.032L948.732 486.301L948.085 485.538Z" fill="#D6919A"/>
<path d="M934.719 500.405L933.924 501.012L940.076 509.072L940.871 508.465L934.719 500.405Z" fill="#D6919A"/>
<path d="M953.859 501.167L947.008 506.941L947.653 507.706L954.503 501.931L953.859 501.167Z" fill="#D6919A"/>
<path d="M942.56 517.474L935.22 523.801L935.873 524.558L943.213 518.232L942.56 517.474Z" fill="#D6919A"/>
<path d="M953.044 522.586L952.195 523.113L957.129 531.055L957.978 530.527L953.044 522.586Z" fill="#D6919A"/>
<path d="M957.961 509.435L957.152 510.023L963.044 518.128L963.853 517.54L957.961 509.435Z" fill="#D6919A"/>
<path d="M972.156 527.867L963.976 534.125L964.584 534.919L972.764 528.661L972.156 527.867Z" fill="#D6919A"/>
<path d="M973.841 545.072L965.78 551.801L966.421 552.568L974.482 545.84L973.841 545.072Z" fill="#D6919A"/>
<path d="M947.496 534.128L942.564 538.176L943.198 538.949L948.13 534.901L947.496 534.128Z" fill="#D6919A"/>
<path d="M971.099 556.261L970.25 556.789L973.741 562.402L974.59 561.874L971.099 556.261Z" fill="#D6919A"/>
<path d="M802.7 397.809L803.08 429.549L818.23 437.749C820.49 438.969 823.23 437.339 823.23 434.769V404.129C823.23 402.809 822.46 401.609 821.26 401.049L807.5 394.689C805.24 393.649 802.67 395.319 802.7 397.809Z" fill="#322159"/>
<path d="M826.83 433.969C826.55 433.969 826.33 433.749 826.33 433.469V401.789C826.33 400.969 825.87 400.219 825.14 399.839L810.92 392.529C810.67 392.399 810.58 392.099 810.7 391.859C810.83 391.609 811.13 391.519 811.37 391.639L825.59 398.949C826.66 399.499 827.32 400.589 827.32 401.789V433.469C827.33 433.749 827.11 433.969 826.83 433.969Z" fill="#8974B5"/>
<path d="M825.03 396.168C825 396.168 824.97 396.168 824.94 396.158C824.67 396.108 824.49 395.848 824.54 395.578L825.88 388.408C825.93 388.138 826.19 387.958 826.46 388.008C826.73 388.058 826.91 388.318 826.86 388.588L825.52 395.758C825.47 395.998 825.26 396.168 825.03 396.168Z" fill="#8974B5"/>
<path d="M828.16 398.049C828 398.049 827.85 397.979 827.75 397.839C827.59 397.609 827.64 397.299 827.87 397.139L833.78 392.929C834.01 392.769 834.32 392.819 834.48 393.049C834.64 393.279 834.59 393.589 834.36 393.749L828.45 397.959C828.37 398.019 828.26 398.049 828.16 398.049Z" fill="#8974B5"/>
<path d="M828.7 402.458C828.45 402.458 828.23 402.268 828.2 402.008C828.17 401.738 828.37 401.488 828.64 401.458L836.26 400.628C836.53 400.598 836.78 400.798 836.81 401.068C836.84 401.338 836.64 401.588 836.37 401.618L828.75 402.448C828.74 402.458 828.72 402.458 828.7 402.458Z" fill="#8974B5"/>
<path d="M879.14 518.95L861.44 526.82C861.44 526.82 862.68 529.27 869.49 526.82C876.3 524.37 877.7 524.37 877.7 524.37C877.7 524.37 870.19 532.59 869.49 534.51C868.79 536.43 876.65 532.41 880.85 531.36C885.05 530.31 886.1 531.71 883.47 533.11C880.85 534.51 874.2 537.48 877 537.31C879.8 537.14 888.02 533.64 889.94 534.16C891.86 534.68 902.7 537.31 908.12 536.08C908.12 536.08 939.07 573.32 960.93 571.93C966.18 570.01 973.17 563.54 963.73 553.05C954.29 542.56 907.43 519.48 901.83 518.25C896.23 517.03 879.14 518.95 879.14 518.95Z" fill="#C5503B"/>
<path d="M818.36 409.679C819.87 409.089 812.2 397.329 803.8 406.379C803.8 406.379 795.01 409.919 794.62 420.279C794.23 430.639 792.92 442.569 792.92 442.569C792.92 442.569 767.49 501.579 786.49 517.839C805.49 534.099 806.9 458.079 806.9 444.099C806.9 444.099 810.38 437.949 810.24 433.469L805.38 430.469C805.38 430.469 803.76 429.769 803.69 427.069C803.62 424.369 803.69 421.389 803.69 421.389C803.69 421.389 805.96 421.669 806.96 423.019C807.95 424.369 812.64 424.559 814.14 423.759C815.63 422.949 817.84 418.259 816.77 416.339C815.7 414.419 810.23 410.439 806.82 411.079C806.82 411.079 807.74 407.949 808.95 407.379C810.16 406.809 812.79 406.309 814 407.949C815.21 409.589 816.69 410.339 818.36 409.679Z" fill="#C5503B"/>
<path d="M871.02 411.848C872.213 411.848 873.18 410.465 873.18 408.758C873.18 407.051 872.213 405.668 871.02 405.668C869.827 405.668 868.86 407.051 868.86 408.758C868.86 410.465 869.827 411.848 871.02 411.848Z" fill="#322159"/>
<path d="M887.14 414.52C888.333 414.52 889.3 413.136 889.3 411.43C889.3 409.723 888.333 408.34 887.14 408.34C885.947 408.34 884.98 409.723 884.98 411.43C884.98 413.136 885.947 414.52 887.14 414.52Z" fill="#322159"/>
<g opacity="0.5">
<path opacity="0.5" d="M867.61 421.569C871.553 421.569 874.75 418.372 874.75 414.429C874.75 410.486 871.553 407.289 867.61 407.289C863.667 407.289 860.47 410.486 860.47 414.429C860.47 418.372 863.667 421.569 867.61 421.569Z" fill="white"/>
</g>
<path d="M867.62 422.069C863.41 422.069 859.98 418.639 859.98 414.429C859.98 410.219 863.41 406.789 867.62 406.789C871.83 406.789 875.26 410.219 875.26 414.429C875.26 418.639 871.83 422.069 867.62 422.069ZM867.62 407.789C863.96 407.789 860.98 410.769 860.98 414.429C860.98 418.089 863.96 421.069 867.62 421.069C871.28 421.069 874.26 418.089 874.26 414.429C874.26 410.769 871.28 407.789 867.62 407.789Z" fill="#322159"/>
<g opacity="0.5">
<path opacity="0.5" d="M886.28 424.659C890.223 424.659 893.42 421.462 893.42 417.519C893.42 413.576 890.223 410.379 886.28 410.379C882.337 410.379 879.14 413.576 879.14 417.519C879.14 421.462 882.337 424.659 886.28 424.659Z" fill="white"/>
</g>
<path d="M886.28 425.159C882.07 425.159 878.64 421.729 878.64 417.519C878.64 413.309 882.07 409.879 886.28 409.879C890.49 409.879 893.92 413.309 893.92 417.519C893.92 421.729 890.49 425.159 886.28 425.159ZM886.28 410.879C882.62 410.879 879.64 413.859 879.64 417.519C879.64 421.179 882.62 424.159 886.28 424.159C889.94 424.159 892.92 421.179 892.92 417.519C892.92 413.859 889.94 410.879 886.28 410.879Z" fill="#322159"/>
<path d="M893.42 414.549C893.21 414.549 893.02 414.419 892.95 414.209C892.86 413.949 893 413.659 893.26 413.569L906.91 408.859C907.17 408.769 907.46 408.909 907.55 409.169C907.64 409.429 907.5 409.719 907.24 409.809L893.59 414.519C893.53 414.539 893.47 414.549 893.42 414.549Z" fill="#322159"/>
<path d="M897.07 408.159C896.74 408.159 896.42 407.999 896.23 407.699C892.87 402.509 886.83 404.839 886.58 404.939C886.07 405.139 885.49 404.899 885.28 404.379C885.07 403.869 885.32 403.289 885.83 403.079C888.52 401.989 894.5 401.329 897.91 406.609C898.21 407.069 898.08 407.689 897.61 407.989C897.44 408.109 897.25 408.159 897.07 408.159Z" fill="#833823"/>
<path d="M866.81 404.351C866.61 404.351 866.42 404.291 866.24 404.171C865.79 403.861 865.67 403.231 865.99 402.781C866.06 402.671 867.84 400.151 870.9 399.661C872.91 399.341 874.97 399.951 877 401.501C877.44 401.831 877.53 402.461 877.19 402.901C876.86 403.341 876.23 403.431 875.79 403.091C874.21 401.891 872.67 401.401 871.21 401.631C869.01 401.981 867.64 403.901 867.62 403.921C867.44 404.191 867.13 404.351 866.81 404.351Z" fill="#833823"/>
<path d="M877.34 409.68C877.34 409.68 875.3 415.55 871.21 416.64C867.12 417.73 874.28 421.35 874.28 421.35" fill="#C6503B"/>
<path d="M874.27 421.859C874.19 421.859 874.12 421.839 874.04 421.809C872.92 421.239 869.27 419.259 869.45 417.559C869.52 416.909 870.06 416.439 871.08 416.169C874.86 415.159 876.85 409.579 876.87 409.529C876.96 409.269 877.25 409.129 877.51 409.219C877.77 409.309 877.91 409.599 877.82 409.859C877.73 410.109 875.64 415.989 871.34 417.139C870.81 417.279 870.47 417.479 870.45 417.669C870.38 418.349 872.49 419.899 874.5 420.919C874.75 421.039 874.84 421.349 874.72 421.589C874.63 421.759 874.46 421.859 874.27 421.859Z" fill="#833823"/>
<path d="M869.8 423.758C869.8 423.758 874.29 428.038 882.7 424.918C882.7 424.918 882.76 433.368 875.15 433.458C867.54 433.558 869.8 423.758 869.8 423.758Z" fill="white"/>
<path d="M874.85 411.934L874.669 412.918L879.045 413.723L879.226 412.739L874.85 411.934Z" fill="#322159"/>
<path d="M908.85 441.87C902.06 441.87 896.53 436.34 896.53 429.55C896.53 424.82 899.16 420.59 903.41 418.49C903.78 418.31 904.23 418.46 904.41 418.83C904.59 419.2 904.44 419.65 904.07 419.83C900.34 421.67 898.03 425.39 898.03 429.54C898.03 435.51 902.89 440.36 908.85 440.36C914.81 440.36 919.67 435.51 919.67 429.54C919.67 425.72 917.62 422.15 914.33 420.21C913.97 420 913.85 419.54 914.06 419.18C914.27 418.82 914.73 418.7 915.09 418.91C918.84 421.12 921.17 425.19 921.17 429.53C921.17 436.34 915.65 441.87 908.85 441.87Z" fill="white"/>
</svg>
