<svg width="30" height="30" viewBox="0 0 30 30" fill="none" xmlns="http://www.w3.org/2000/svg">
<g clip-path="url(#clip0)">
<path d="M25.3792 3.92969L11.7946 17.5144C11.4284 17.8805 10.8347 17.8805 10.4686 17.5144L4.62076 11.6665L0 16.2873L8.82111 25.1085C9.43389 25.7213 10.265 26.0655 11.1315 26.0655C11.998 26.0655 12.8292 25.7212 13.4419 25.1085L30 8.55039L25.3792 3.92969Z" fill="#A5EB78"/>
<g opacity="0.1">
<path opacity="0.1" d="M28.4721 7.02734L10.9918 24.5077C10.5081 24.9913 9.89999 25.3211 9.24292 25.4681C9.79153 25.8569 10.4504 26.0705 11.1317 26.0705C11.9982 26.0705 12.8293 25.7262 13.442 25.1135L30.0002 8.55535L28.4721 7.02734Z" fill="black"/>
</g>
</g>
<defs>
<clipPath id="clip0">
<rect width="30" height="30" fill="white"/>
</clipPath>
</defs>
</svg>
