<svg width="282" height="282" viewBox="0 0 282 282" fill="none" xmlns="http://www.w3.org/2000/svg">
<g clip-path="url(#clip0)">
<path d="M252.704 38.9852H29.2971C13.2807 38.9852 0.25 52.0159 0.25 68.0323V213.968C0.25 229.984 13.2807 243.015 29.2971 243.015H252.704C268.721 243.015 281.751 229.984 281.751 213.968V68.0323C281.75 52.0159 268.72 38.9852 252.704 38.9852ZM243.128 60.3883L147.651 136.13C143.735 139.236 138.265 139.236 134.349 136.13L38.8725 60.3883H243.128ZM260.347 213.968C260.347 218.189 256.925 221.612 252.703 221.612H29.2971C25.0754 221.612 21.6531 218.189 21.6531 213.968V74.0486L121.048 152.897C126.7 157.381 133.786 159.85 141.001 159.85C148.216 159.85 155.302 157.381 160.954 152.897L260.348 74.0486V213.968H260.347Z" fill="white"/>
<path d="M252.704 243.265H29.2969C13.1426 243.265 0 230.122 0 213.968V68.0324C0 51.8781 13.1426 38.7355 29.2969 38.7355H252.704C268.858 38.7355 282 51.8781 282 68.0324V213.968C282 230.122 268.858 243.265 252.704 243.265ZM29.2969 39.2351C13.4179 39.2351 0.499606 52.1539 0.499606 68.0324V213.968C0.499606 229.847 13.4179 242.765 29.2969 242.765H252.704C268.582 242.765 281.501 229.847 281.501 213.968V68.0324C281.501 52.1534 268.583 39.2351 252.704 39.2351H29.2969ZM252.704 221.861H29.2969C24.9443 221.861 21.4031 218.321 21.4031 213.968V73.5315L121.203 152.702C126.81 157.15 133.841 159.6 141 159.6C148.159 159.6 155.19 157.151 160.798 152.702L260.597 73.5315V213.968C260.597 218.321 257.056 221.861 252.704 221.861ZM21.9027 74.5657V213.969C21.9027 218.045 25.2196 221.362 29.2969 221.362H252.704C256.78 221.362 260.098 218.045 260.098 213.969V74.5657L161.108 153.093C155.413 157.612 148.271 160.1 141 160.1C133.729 160.1 126.588 157.612 120.893 153.093L21.9027 74.5657ZM141 138.709C138.549 138.709 136.132 137.862 134.194 136.325L38.1554 60.1386H243.845L147.806 136.325C145.868 137.862 143.451 138.709 141 138.709ZM39.5888 60.6382L134.504 135.934C136.354 137.402 138.661 138.209 140.999 138.209C143.338 138.209 145.645 137.401 147.495 135.934L242.41 60.6382H39.5888Z" fill="white"/>
</g>
<defs>
<clipPath id="clip0">
<rect width="282" height="282" fill="white"/>
</clipPath>
</defs>
</svg>
