<svg width="512" height="512" viewBox="0 0 512 512" fill="none" xmlns="http://www.w3.org/2000/svg">
<g clip-path="url(#clip0)">
<path d="M1.60683e-05 288.819C0.00868816 280.794 2.46489 272.962 7.04079 266.369C11.6167 259.775 18.0946 254.735 25.61 251.919C20.0295 246.695 16.0904 239.96 14.2733 232.536C12.4562 225.111 12.8398 217.318 15.3772 210.107C17.9146 202.897 22.4961 196.581 28.5626 191.931C34.629 187.281 41.9181 184.497 49.54 183.919C44.602 178.455 41.2961 171.715 39.9983 164.465C38.7004 157.215 39.4626 149.747 42.1982 142.909C44.9338 136.071 49.5331 130.138 55.4731 125.784C61.4132 121.43 68.4557 118.83 75.8 118.279C70.6878 112.63 67.3251 105.618 66.1199 98.0953C64.9147 90.5723 65.9188 82.8612 69.0103 75.8977C72.1019 68.9342 77.1482 63.0176 83.5366 58.866C89.925 54.7143 97.3811 52.5061 105 52.5091L321.64 52.5091C322.502 52.5088 323.355 52.6781 324.151 53.0076C324.947 53.337 325.671 53.8201 326.28 54.4291C326.28 54.4291 333.13 60.1591 354.46 63.4291L354.46 266.049C279.31 282.049 262.56 353.589 262.56 413.539C262.56 471.939 217.07 472.619 216.61 472.619C203.36 472.619 192.41 467.549 184.07 457.559C157.78 425.999 166 352.419 169.53 328.209L39.38 328.209C28.9381 328.196 18.9278 324.041 11.5452 316.657C4.16264 309.272 0.0105996 299.261 1.60683e-05 288.819V288.819ZM367.59 255.999L367.59 72.2091C367.601 63.508 371.062 55.1662 377.214 49.0136C383.367 42.8609 391.709 39.3997 400.41 39.3892L479.18 39.3892C487.881 39.3997 496.223 42.8609 502.376 49.0136C508.528 55.1662 511.989 63.508 512 72.2091L512 255.999C511.989 264.7 508.528 273.042 502.376 279.195C496.223 285.347 487.881 288.809 479.18 288.819L400.41 288.819C391.709 288.809 383.367 285.347 377.214 279.195C371.062 273.042 367.601 264.7 367.59 255.999V255.999ZM426.67 98.4591C426.67 101.056 427.44 103.595 428.883 105.754C430.326 107.913 432.376 109.596 434.775 110.59C437.175 111.583 439.815 111.843 442.362 111.337C444.909 110.83 447.248 109.58 449.084 107.743C450.921 105.907 452.171 103.568 452.678 101.021C453.184 98.4737 452.924 95.8337 451.931 93.4345C450.937 91.0353 449.254 88.9847 447.095 87.542C444.935 86.0992 442.397 85.3291 439.8 85.3291C436.318 85.3291 432.978 86.7125 430.516 89.1748C428.053 91.6372 426.67 94.9768 426.67 98.4591Z" fill="#F25757"/>
</g>
<defs>
<clipPath id="clip0">
<rect width="512" height="512" fill="white" transform="translate(512 512) rotate(-180)"/>
</clipPath>
</defs>
</svg>
