<svg width="512" height="512" viewBox="0 0 512 512" fill="none" xmlns="http://www.w3.org/2000/svg">
<g clip-path="url(#clip0)">
<path d="M512 223.181C511.991 231.206 509.535 239.038 504.959 245.631C500.383 252.225 493.905 257.265 486.39 260.081C491.97 265.304 495.91 272.04 497.727 279.464C499.544 286.889 499.16 294.682 496.623 301.893C494.085 309.103 489.504 315.419 483.437 320.069C477.371 324.719 470.082 327.503 462.46 328.081C467.398 333.545 470.704 340.285 472.002 347.535C473.3 354.784 472.537 362.253 469.802 369.091C467.066 375.929 462.467 381.862 456.527 386.216C450.587 390.57 443.544 393.17 436.2 393.721C441.312 399.37 444.675 406.382 445.88 413.905C447.085 421.428 446.081 429.139 442.99 436.102C439.898 443.066 434.852 448.982 428.463 453.134C422.075 457.286 414.619 459.494 407 459.491H190.36C189.498 459.491 188.645 459.322 187.849 458.992C187.053 458.663 186.329 458.18 185.72 457.571C185.72 457.571 178.87 451.841 157.54 448.571V245.951C232.69 229.951 249.44 158.411 249.44 98.4609C249.44 40.0609 294.93 39.3809 295.39 39.3809C308.64 39.3809 319.59 44.4509 327.93 54.4409C354.22 86.0009 346 159.581 342.47 183.791H472.62C483.062 183.804 493.072 187.959 500.455 195.343C507.837 202.728 511.989 212.739 512 223.181V223.181ZM144.41 256.001V439.791C144.399 448.492 140.938 456.834 134.786 462.986C128.633 469.139 120.291 472.6 111.59 472.611H32.82C24.1188 472.6 15.7771 469.139 9.62445 462.986C3.4718 456.834 0.0105854 448.492 0 439.791L0 256.001C0.0105854 247.3 3.4718 238.958 9.62445 232.805C15.7771 226.653 24.1188 223.191 32.82 223.181H111.59C120.291 223.191 128.633 226.653 134.786 232.805C140.938 238.958 144.399 247.3 144.41 256.001V256.001ZM85.33 413.541C85.33 410.944 84.5599 408.405 83.1172 406.246C81.6745 404.087 79.6238 402.404 77.2246 401.41C74.8254 400.417 72.1854 400.157 69.6385 400.663C67.0915 401.17 64.752 402.42 62.9157 404.257C61.0794 406.093 59.8289 408.432 59.3223 410.979C58.8157 413.526 59.0757 416.166 60.0695 418.565C61.0632 420.965 62.7461 423.015 64.9054 424.458C67.0646 425.901 69.6031 426.671 72.2 426.671C75.6823 426.671 79.022 425.288 81.4843 422.825C83.9467 420.363 85.33 417.023 85.33 413.541Z" fill="#57F2EB"/>
</g>
<defs>
<clipPath id="clip0">
<rect width="512" height="512" fill="white"/>
</clipPath>
</defs>
</svg>
