<svg width="230" height="426" viewBox="0 0 230 426" fill="none" xmlns="http://www.w3.org/2000/svg">
<path d="M4.84271 224.164L201.419 420.196C207.859 426.615 218.287 426.604 224.716 420.163C231.141 413.722 231.125 403.289 224.683 396.865L39.8081 212.5L224.69 28.1364C231.131 21.7116 231.147 11.2849 224.723 4.84351C221.5 1.61451 217.277 -1.52588e-05 213.055 -1.5628e-05C208.843 -1.59962e-05 204.637 1.60371 201.42 4.8103L4.84271 200.838C1.7407 203.924 1.5787e-05 208.124 1.54044e-05 212.5C1.50219e-05 216.876 1.74568 221.072 4.84271 224.164Z" fill="#E887B2"/>
</svg>
