<svg xmlns="http://www.w3.org/2000/svg" version="1.1" xmlns:xlink="http://www.w3.org/1999/xlink" xmlns:svgjs="http://svgjs.dev/svgjs" viewBox="0 0 1920 1080"><rect width="1920" height="1080" fill="#8080c0"></rect><g transform="matrix(1.15,0,0,1.15,-135.89208984375,-81)"><path d="M0,-1080C4.203665492666592,-1004.6368388533459,32.9954858548245,-763.2219652913842,25.221992955999553,-627.8210331200756C17.44850005717461,-492.4201009487671,-25.23392340467129,-375.3822047922019,-46.64095739294967,-267.5944069721486C-68.04799138122806,-159.8066091520953,-125.02768387970585,-116.62619149676021,-103.22021097367073,18.905753800243986C-81.41273806763562,154.43769909724818,49.3022067206228,409.6031063440255,84.203880043261,545.5972648098766C119.1055533658992,681.5914232757277,120.73104954348308,715.429792360215,106.18982896215843,834.8707045953506C91.64860838083378,954.3116168304863,31.233812377122995,1124.5600358764289,-3.0434434446869147,1262.2427382206904C-37.320699266496824,1399.925440564952,-99.98094654281553,1511.3407083643679,-99.47370596870104,1660.9669186609194C-98.96646539458655,1810.593128957471,-16.578950994783508,2076.82781977682,0,2160L 1920 2160 L 1920 -1080 Z" fill="url(&quot;#SvgjsLinearGradient1024&quot;)"></path><path d="M320,-1080C336.51906824284447,-988.7162336357101,414.0344214039792,-727.5526058633794,419.1144094570669,-532.2974018142606C424.19439751015466,-337.04219776514185,376.6637491531079,-79.69768904655496,350.4799283185262,91.53122429471264C324.2961074839445,262.76013763598024,251.82908413277596,337.611773777286,262.0114844495766,495.07607823334496C272.1938847663772,652.5403826894039,397.2243136236671,852.8727194179131,411.57433021933,1036.3170510310665C425.92434681499293,1219.7613826442198,363.37397239344233,1408.4615764174432,348.111584023554,1595.7420679122654C332.8491956536656,1783.0225594070876,324.6852640039257,2065.957011318711,320,2160L 1920 2160 L 1920 -1080 Z" fill="url(&quot;#SvgjsLinearGradient1025&quot;)"></path><path d="M640,-1080C655.7858136523226,-1019.8744650642949,747.2434795227243,-837.9062527364465,734.7148819139359,-719.2467903857694C722.1862843051474,-600.5873280350922,585.2615485969766,-520.3546014875166,564.8284143472695,-368.04322589593755C544.3952800975624,-215.73185030435857,586.4299820980418,60.20383189966989,612.1160764156936,194.6214631637045C637.8021707333453,329.0390944277391,726.2766299423822,294.4148542374204,718.9449802531802,438.46256168827006C711.6133305639783,582.5102691391197,598.9497641025833,889.1427050408695,568.1261782804818,1058.9077078688024C537.3025924583802,1228.6727106967353,537.3850708965597,1324.7298648802198,534.0034653205707,1457.0525786558678C530.6218597445818,1589.3752924315158,530.1704557113096,1735.6860869653347,547.8365448245478,1852.84399052269C565.502633937786,1970.0018940800455,624.6394241374246,2108.807331753782,640,2160L 1920 2160 L 1920 -1080 Z" fill="url(&quot;#SvgjsLinearGradient1026&quot;)"></path><path d="M960,-1080C979.7584803528213,-989.107660667266,1077.4291200893833,-738.0446566143432,1078.5508821169276,-534.6459640035963C1079.6726441444719,-331.24727139284937,994.3423396292803,-80.14482636321384,966.7305721652656,140.39215566448183C939.1188047012508,360.9291376921775,900.2444802221682,550.0292737880325,912.8802773328391,788.5759281625777C925.51607444351,1027.122582537123,1034.692067718097,1343.1014032721832,1042.5453548292905,1571.6720819117536C1050.3986419404841,1800.242760551324,973.7575591382151,2061.9453469852924,960,2160L 1920 2160 L 1920 -1080 Z" fill="url(&quot;#SvgjsLinearGradient1027&quot;)"></path><path d="M1280,-1080C1289.3234748897546,-999.1966894016541,1352.7562721989061,-731.2191333200369,1335.9408493385274,-595.1801364099247C1319.1254264781487,-459.1411394998124,1191.0200408518149,-424.1120573414223,1179.1074628377276,-263.76601853932664C1167.1948848236402,-103.41997973723096,1232.0845831052907,198.01879073505702,1264.4653812540041,366.89609640264933C1296.8461794027176,535.7734020702417,1377.2102385243677,587.2149747234158,1373.3922517300084,749.4978154662273C1369.5742649356491,911.7806562090387,1260.0332977870403,1193.2587073780394,1241.5574604878489,1340.5931408595181C1223.0816231886574,1487.927574340997,1256.1301380161688,1496.9366064983524,1262.5372279348605,1633.5044163550992C1268.9443178535523,1770.072226211846,1277.0895379891435,2072.250736059183,1280,2160L 1920 2160 L 1920 -1080 Z" fill="url(&quot;#SvgjsLinearGradient1028&quot;)"></path><path d="M1600,-1080C1584.2308302884812,-971.1048868507526,1506.399636155386,-642.205191807493,1505.3849817308878,-426.62932110451516C1504.3703273063898,-211.0534504015374,1595.435254414832,-3.9015198039322456,1593.9120734530113,213.4552242178666C1592.3888924911907,430.8119682396655,1476.3483342934421,660.5956276511924,1496.245895959964,877.511143026278C1516.1434576264858,1094.4266584013635,1696.0050927788027,1301.200173639426,1713.297443452142,1514.9483164683797C1730.5897941254814,1728.6964592973334,1618.8829072420237,2052.4913860780634,1600,2160L 1920 2160 L 1920 -1080 Z" fill="url(&quot;#SvgjsLinearGradient1029&quot;)"></path></g><defs><linearGradient x1="0.1" y1="0" x2="0" y2="1" id="SvgjsLinearGradient1024"><stop stop-color="#8080c0" offset="0"></stop><stop stop-color="#808bc0" offset="0"></stop></linearGradient><linearGradient x1="0.1" y1="0" x2="0" y2="1" id="SvgjsLinearGradient1025"><stop stop-color="#9b9bcd" offset="0"></stop><stop stop-color="#9ba3cd" offset="0.16666666666666666"></stop></linearGradient><linearGradient x1="0.1" y1="0" x2="0" y2="1" id="SvgjsLinearGradient1026"><stop stop-color="#b5b5da" offset="0"></stop><stop stop-color="#b5bbda" offset="0.3333333333333333"></stop></linearGradient><linearGradient x1="0.1" y1="0" x2="0" y2="1" id="SvgjsLinearGradient1027"><stop stop-color="#d0d0e8" offset="0"></stop><stop stop-color="#d0d4e8" offset="0.5"></stop></linearGradient><linearGradient x1="0.1" y1="0" x2="0" y2="1" id="SvgjsLinearGradient1028"><stop stop-color="#ebebf5" offset="0"></stop><stop stop-color="#ebedf5" offset="0.6666666666666666"></stop></linearGradient><linearGradient x1="0.1" y1="0" x2="0" y2="1" id="SvgjsLinearGradient1029"><stop stop-color="#ffffff" offset="0"></stop><stop stop-color="#ffffff" offset="0.8333333333333334"></stop></linearGradient></defs></svg>